<?xml version="1.0" encoding="utf-8"?>
<!-- Generator: Adobe Illustrator 14.0.0, SVG Export Plug-In . SVG Version: 6.00 Build 43363)  -->
<!DOCTYPE svg PUBLIC "-//W3C//DTD SVG 1.1//EN" "http://www.w3.org/Graphics/SVG/1.1/DTD/svg11.dtd">
<svg version="1.1" id="Calque_1" xmlns="http://www.w3.org/2000/svg" xmlns:xlink="http://www.w3.org/1999/xlink" x="0px" y="0px"
	 width="24px" height="24px" viewBox="0 0 24 24" enable-background="new 0 0 24 24" xml:space="preserve">
<g>
	<line fill="none" x1="12.972" y1="12.74" x2="11.736" y2="11.015"/>
	<circle fill="none" cx="12.972" cy="12.74" r="1.768"/>
	<circle fill="none" cx="12.972" cy="12.74" r="2.122"/>
	<polyline fill="none" points="12.972,12.74 12.442,6.867 12.972,12.74 13.502,18.612 12.972,12.74 18.845,12.21 12.972,12.74 
		7.1,13.27 12.972,12.74 11.804,7.868 12.972,12.74 14.141,17.612 12.972,12.74 17.845,11.571 12.972,12.74 8.1,13.908 
		12.972,12.74 12.792,11.931 12.972,12.74 13.153,13.549 12.972,12.74 13.781,12.559 12.972,12.74 12.163,12.92 12.972,12.74 
		11.809,5.181 12.972,12.74 14.136,20.299 12.972,12.74 20.531,11.576 12.972,12.74 5.413,13.903 12.972,12.74 7.365,12.823 
		12.972,12.74 18.579,12.656 12.972,12.74 12.889,7.133 12.972,12.74 13.056,18.347 12.972,12.74 10.812,6.16 12.972,12.74 
		15.132,19.319 12.972,12.74 19.552,10.58 12.972,12.74 6.392,14.899 12.972,12.74 9.759,12.5 12.972,12.74 16.185,12.979 
		12.972,12.74 13.212,9.527 12.972,12.74 12.732,15.952 12.972,12.74 10.847,5.097 12.972,12.74 15.098,20.383 12.972,12.74 
		20.615,10.614 12.972,12.74 5.329,14.865 12.972,12.74 11.965,12.063 12.972,12.74 13.979,13.417 12.972,12.74 13.649,11.732 
		12.972,12.74 12.295,13.747 12.972,12.74 10.698,8.146 12.972,12.74 15.246,17.333 12.972,12.74 17.565,10.466 12.972,12.74 
		8.379,15.014 12.972,12.74 10.629,10.05 12.972,12.74 15.315,15.43 12.972,12.74 15.662,10.396 12.972,12.74 10.282,15.083 
		12.972,12.74 11.025,6.619 12.972,12.74 14.92,18.861 12.972,12.74 19.094,10.792 12.972,12.74 6.851,14.688 12.972,12.74 
		10.813,7.477 12.972,12.74 15.131,18.003 12.972,12.74 18.235,10.581 12.972,12.74 7.709,14.898 12.972,12.74 2.897,10.729 
		12.972,12.74 23.047,14.751 12.972,12.74 14.983,2.665 12.972,12.74 10.961,22.814 12.972,12.74 11.752,10.584 12.972,12.74 
		14.192,14.895 12.972,12.74 15.127,11.52 12.972,12.74 10.817,13.96 	"/>
	<radialGradient id="SVGID_1_" cx="12.9727" cy="12.7402" r="4.2432" gradientUnits="userSpaceOnUse">
		<stop  offset="0" style="stop-color:#220504"/>
		<stop  offset="0.73" style="stop-color:#974026"/>
		<stop  offset="1" style="stop-color:#220504"/>
	</radialGradient>
	<circle opacity="0.15" fill="url(#SVGID_1_)" cx="12.972" cy="12.74" r="4.243"/>
	<radialGradient id="SVGID_2_" cx="12.9722" cy="12.7397" r="2.1216" gradientUnits="userSpaceOnUse">
		<stop  offset="0.15" style="stop-color:#FFFFFF"/>
		<stop  offset="0.2114" style="stop-color:#E3D1D1"/>
		<stop  offset="0.2918" style="stop-color:#C39A9B"/>
		<stop  offset="0.3613" style="stop-color:#AB7274"/>
		<stop  offset="0.4163" style="stop-color:#9C5A5C"/>
		<stop  offset="0.45" style="stop-color:#975153"/>
		<stop  offset="0.5685" style="stop-color:#6B3435"/>
		<stop  offset="0.6916" style="stop-color:#431B1A"/>
		<stop  offset="0.7898" style="stop-color:#2B0B0A"/>
		<stop  offset="0.85" style="stop-color:#220504"/>
		<stop  offset="0.8573" style="stop-color:#260705"/>
		<stop  offset="0.8648" style="stop-color:#330C08"/>
		<stop  offset="0.8725" style="stop-color:#47150C"/>
		<stop  offset="0.8802" style="stop-color:#642112"/>
		<stop  offset="0.888" style="stop-color:#8A311A"/>
		<stop  offset="0.8958" style="stop-color:#B74424"/>
		<stop  offset="0.9" style="stop-color:#D3502A"/>
		<stop  offset="0.9025" style="stop-color:#C84B28"/>
		<stop  offset="0.9142" style="stop-color:#9C391E"/>
		<stop  offset="0.9263" style="stop-color:#772916"/>
		<stop  offset="0.9389" style="stop-color:#581C10"/>
		<stop  offset="0.952" style="stop-color:#40120A"/>
		<stop  offset="0.9659" style="stop-color:#2F0B07"/>
		<stop  offset="0.9811" style="stop-color:#250605"/>
		<stop  offset="1" style="stop-color:#220504"/>
	</radialGradient>
	<circle opacity="0.5" fill="url(#SVGID_2_)" cx="12.972" cy="12.74" r="2.122"/>
	<radialGradient id="SVGID_3_" cx="12.9722" cy="12.7397" r="1.7681" gradientUnits="userSpaceOnUse">
		<stop  offset="0.15" style="stop-color:#FFFFFF"/>
		<stop  offset="0.2824" style="stop-color:#C2C2C2"/>
		<stop  offset="0.4253" style="stop-color:#888888"/>
		<stop  offset="0.5636" style="stop-color:#575757"/>
		<stop  offset="0.6936" style="stop-color:#313131"/>
		<stop  offset="0.8134" style="stop-color:#161616"/>
		<stop  offset="0.9192" style="stop-color:#060606"/>
		<stop  offset="1" style="stop-color:#000000"/>
	</radialGradient>
	<circle fill="url(#SVGID_3_)" cx="12.972" cy="12.74" r="1.768"/>
	<polyline opacity="0.03" fill="none" stroke="#FFFFFF" stroke-width="2" points="12.972,12.74 12.442,6.867 12.972,12.74 
		13.502,18.612 12.972,12.74 18.845,12.21 12.972,12.74 7.1,13.27 12.972,12.74 11.804,7.868 12.972,12.74 14.141,17.612 
		12.972,12.74 17.845,11.571 12.972,12.74 8.1,13.908 12.972,12.74 12.792,11.931 12.972,12.74 13.153,13.549 12.972,12.74 
		13.781,12.559 12.972,12.74 12.163,12.92 12.972,12.74 11.809,5.181 12.972,12.74 14.136,20.299 12.972,12.74 20.531,11.576 
		12.972,12.74 5.413,13.903 12.972,12.74 7.365,12.823 12.972,12.74 18.579,12.656 12.972,12.74 12.889,7.133 12.972,12.74 
		13.056,18.347 12.972,12.74 10.812,6.16 12.972,12.74 15.132,19.319 12.972,12.74 19.552,10.58 12.972,12.74 6.392,14.899 
		12.972,12.74 9.759,12.5 12.972,12.74 16.185,12.979 12.972,12.74 13.212,9.527 12.972,12.74 12.732,15.952 12.972,12.74 
		10.847,5.097 12.972,12.74 15.098,20.383 12.972,12.74 20.615,10.614 12.972,12.74 5.329,14.865 12.972,12.74 11.965,12.063 
		12.972,12.74 13.979,13.417 12.972,12.74 13.649,11.732 12.972,12.74 12.295,13.747 12.972,12.74 10.698,8.146 12.972,12.74 
		15.246,17.333 12.972,12.74 17.565,10.466 12.972,12.74 8.379,15.014 12.972,12.74 10.629,10.05 12.972,12.74 15.315,15.43 
		12.972,12.74 15.662,10.396 12.972,12.74 10.282,15.083 12.972,12.74 11.025,6.619 12.972,12.74 14.92,18.861 12.972,12.74 
		19.094,10.792 12.972,12.74 6.851,14.688 12.972,12.74 10.813,7.477 12.972,12.74 15.131,18.003 12.972,12.74 18.235,10.581 
		12.972,12.74 7.709,14.898 12.972,12.74 2.897,10.729 12.972,12.74 23.047,14.751 12.972,12.74 14.983,2.665 12.972,12.74 
		10.961,22.814 12.972,12.74 11.752,10.584 12.972,12.74 14.192,14.895 12.972,12.74 15.127,11.52 12.972,12.74 10.817,13.96 	"/>
</g>
</svg>
