<?xml version="1.0" encoding="UTF-8" standalone="no"?>
<!-- Created with Inkscape (http://www.inkscape.org/) -->
<svg
   xmlns:svg="http://www.w3.org/2000/svg"
   xmlns="http://www.w3.org/2000/svg"
   version="1.0"
   width="64"
   height="64"
   viewBox="0 0 612 792"
   id="Layer_1"
   xml:space="preserve"><defs
   id="defs372" />
<g
   transform="translate(-273.999,-363.998)"
   id="g3">
	
	
	<path
   d="M 208.77029,376.36181 L 208.77029,388.73797 L 270.65206,388.73797 L 270.65206,401.11413 L 283.02841,401.11413 L 283.02841,388.73797 L 295.40477,388.73797 L 295.40477,401.11413 L 307.78112,401.11413 L 307.78112,413.49029 L 295.40477,413.49029 L 295.40477,425.86645 L 208.78267,425.86645 L 208.78267,462.99493 L 307.7935,462.99493 L 307.7935,487.74725 L 208.79505,487.74725 L 208.79505,537.25188 L 208.79505,549.62804 L 208.79505,562.0042 L 221.1714,562.0042 L 221.1714,574.38036 L 208.79505,574.38036 L 208.79505,586.75652 L 221.1714,586.75652 L 221.1714,599.13268 L 208.79505,599.13268 L 208.79505,611.50884 L 196.41869,611.50884 L 196.41869,376.36181 L 208.77029,376.36181 z"
   id="path9"
   style="fill:#bfda33;fill-rule:evenodd" />
	<path
   d="M 208.77029,376.36181 L 307.78112,376.36181 L 307.78112,401.11413 L 295.40477,401.11413 L 295.40477,388.73797 L 283.02841,388.73797 L 283.02841,401.11413 L 270.65206,401.11413 L 270.65206,388.73797 L 208.77029,388.73797 L 208.77029,376.36181 z"
   id="path11"
   style="fill:#42a212;fill-rule:evenodd" />
	<path
   d="M 951.25248,376.36181 L 952.48319,611.62147 L 851.91554,611.88508 L 852.25403,376.36181 L 951.25248,376.36181 z"
   id="path13"
   style="fill:#42a212;fill-rule:evenodd" /><path
   d="M 852.25403,599.10793 L 864.63038,599.10793 L 864.53372,613.03111 L 852.19747,611.72543 L 852.25403,599.10793 z"
   id="path259"
   style="fill:#bfda33;fill-rule:evenodd" />
	<path
   d="M 951.25248,376.36181 L 963.62883,376.36181 L 963.62883,611.50884 L 951.25248,611.50884 L 951.25248,599.13268 L 938.87613,599.13268 L 938.87613,586.75652 L 951.25248,586.75652 L 951.25248,574.38036 L 938.87613,574.38036 L 938.87613,562.0042 L 951.25248,562.0042 L 951.25248,487.74725 L 852.25403,487.74725 L 852.25403,462.99493 L 951.25248,462.99493 L 951.25248,425.86645 L 864.63038,425.86645 L 864.63038,413.49029 L 852.25403,413.49029 L 852.25403,401.11413 L 864.63038,401.11413 L 864.63038,388.73797 L 877.00674,388.73797 L 877.00674,401.11413 L 889.38309,401.11413 L 889.38309,388.73797 L 951.25248,388.73797 L 951.25248,376.36181 z"
   id="path15"
   style="fill:#bfda33;fill-rule:evenodd" />
	<path
   d="M 666.63348,425.86645 L 629.50442,425.86645 L 629.50442,438.24261 L 617.14045,438.24261 L 617.14045,413.49029 L 530.50597,413.49029 L 530.50597,438.24261 L 518.12962,438.24261 L 518.12962,425.86645 L 481.00056,425.86645 L 481.00056,401.11413 L 530.50597,401.11413 L 580.01139,401.11413 L 629.50442,401.11413 L 641.88078,401.11413 L 666.63348,401.11413 L 666.63348,425.86645 z"
   id="path17"
   style="fill:#42a212;fill-rule:evenodd" />
	<path
   d="M 307.76874,413.49029 L 307.76874,462.99493 L 208.75792,462.99493 L 208.75792,425.86645 L 295.38001,425.86645 L 295.38001,413.49029 L 307.76874,413.49029 z"
   id="path19"
   style="fill:#42a212;fill-rule:evenodd" />
	
	<path
   d="M 617.14045,438.23023 L 604.76409,438.23023 L 604.76409,425.85407 L 592.38774,425.85407 L 580.01139,425.85407 L 567.63503,425.85407 L 555.25868,425.85407 L 542.88233,425.85407 L 542.88233,438.23023 L 530.50597,438.23023 L 530.50597,413.47791 L 555.25868,413.47791 L 604.76409,413.47791 L 617.14045,413.47791 L 617.14045,438.23023 z"
   id="path23"
   style="fill:#bfda33;fill-rule:evenodd" />
	
	
	<path
   d="M 481.01294,425.86645 L 518.142,425.86645 L 518.142,438.24261 L 530.51835,438.24261 L 530.51835,450.61877 L 518.142,450.61877 L 518.142,462.99493 L 481.01294,462.99493 L 481.01294,425.86645 z"
   id="path29"
   style="fill:#bfda33;fill-rule:evenodd" />
	<path
   d="M 617.14045,438.23023 L 617.14045,450.60639 L 604.76409,450.60639 L 604.76409,462.98255 L 617.14045,462.98255 L 617.14045,475.35871 L 604.76409,475.35871 L 604.76409,487.73487 L 617.14045,487.73487 L 617.14045,500.11103 L 604.76409,500.11103 L 604.76409,512.48719 L 617.14045,512.48719 L 617.14045,524.86335 L 604.76409,524.86335 L 604.76409,537.23951 L 617.14045,537.23951 L 617.14045,549.61567 L 604.76409,549.61567 L 604.76409,561.99183 L 617.14045,561.99183 L 617.14045,549.61567 L 629.50442,549.61567 L 629.50442,561.99183 L 641.88078,561.99183 L 641.88078,549.61567 L 629.50442,549.61567 L 629.50442,537.23951 L 617.14045,537.23951 L 617.14045,524.86335 L 629.50442,524.86335 L 629.50442,512.48719 L 617.14045,512.48719 L 617.14045,500.11103 L 629.50442,500.11103 L 629.50442,487.73487 L 641.88078,487.73487 L 666.63348,487.73487 L 666.63348,586.74415 L 641.88078,586.74415 L 641.88078,611.49647 L 580.01139,611.49647 L 580.01139,586.74415 L 580.01139,574.36799 L 567.63503,574.36799 L 567.63503,561.99183 L 555.25868,561.99183 L 555.25868,574.36799 L 530.50597,574.36799 L 530.50597,561.99183 L 542.88233,561.99183 L 542.88233,549.61567 L 530.50597,549.61567 L 530.50597,537.23951 L 542.88233,537.23951 L 542.88233,524.86335 L 530.50597,524.86335 L 530.50597,512.48719 L 542.88233,512.48719 L 542.88233,500.11103 L 530.50597,500.11103 L 530.50597,487.73487 L 542.88233,487.73487 L 542.88233,475.35871 L 530.50597,475.35871 L 530.50597,462.98255 L 542.88233,462.98255 L 542.88233,450.60639 L 530.50597,450.60639 L 530.50597,438.23023 L 542.88233,438.23023 L 542.88233,425.85407 L 604.76409,425.85407 L 604.76409,438.23023 L 617.14045,438.23023 z"
   id="path31"
   style="fill:#42a212;fill-rule:evenodd" />
	<path
   d="M 666.63348,425.86645 L 666.63348,438.24261 L 666.63348,462.99493 L 654.25713,462.99493 L 629.50442,462.99493 L 629.50442,450.61877 L 617.14045,450.61877 L 617.14045,438.24261 L 629.50442,438.24261 L 629.50442,425.86645 L 641.88078,425.86645 L 654.25713,425.86645 L 666.63348,425.86645 z"
   id="path33"
   style="fill:#bfda33;fill-rule:evenodd" />
	
	
	<path
   d="M 518.142,462.98255 L 518.142,450.60639 L 530.51835,450.60639 L 530.51835,462.98255 L 518.142,462.98255 z"
   id="path39"
   style="fill:#42a212;fill-rule:evenodd" />
	<path
   d="M 530.51835,462.98255 L 530.51835,450.60639 L 542.8947,450.60639 L 542.8947,462.98255 L 530.51835,462.98255 z"
   id="path41"
   style="fill:#bfda33;fill-rule:evenodd" />
	<path
   d="M 617.14045,450.60639 L 617.14045,462.98255 L 604.76409,462.98255 L 604.76409,450.60639 L 617.14045,450.60639 z"
   id="path43"
   style="fill:#bfda33;fill-rule:evenodd" />
	<path
   d="M 617.14045,462.98255 L 617.14045,450.60639 L 629.50442,450.60639 L 629.50442,462.98255 L 617.14045,462.98255 z"
   id="path45"
   style="fill:#42a212;fill-rule:evenodd" />
	<path
   d="M 481.01294,475.35871 C 481.01294,471.23745 481.01294,467.10381 481.01294,462.98255 C 493.38929,462.98255 505.76564,462.98255 518.142,462.98255 C 518.142,467.10381 518.142,471.23745 518.142,475.35871 C 505.76564,475.35871 493.38929,475.35871 481.01294,475.35871 z"
   id="path47"
   style="fill:#42a212;fill-rule:evenodd" />
	<path
   d="M 518.142,475.35871 C 518.142,471.23745 518.142,467.10381 518.142,462.98255 C 522.26332,462.98255 526.39702,462.98255 530.51835,462.98255 C 530.51835,467.10381 530.51835,471.23745 530.51835,475.35871 C 526.38465,475.35871 522.26332,475.35871 518.142,475.35871 z"
   id="path49"
   style="fill:#bfda33;fill-rule:evenodd" />
	<path
   d="M 617.14045,475.35871 L 617.14045,462.98255 L 629.50442,462.98255 L 629.50442,475.35871 L 617.14045,475.35871 z"
   id="path51"
   style="fill:#bfda33;fill-rule:evenodd" />
	<path
   d="M 629.50442,475.35871 L 629.50442,462.98255 L 666.63348,462.98255 L 666.63348,475.35871 L 629.50442,475.35871 z"
   id="path53"
   style="fill:#42a212;fill-rule:evenodd" />
	
	<path
   d="M 481.01294,487.73487 C 481.01294,483.61361 481.01294,479.47997 481.01294,475.35871 C 485.13426,475.35871 489.26796,475.35871 493.38929,475.35871 C 501.64432,475.35871 509.88697,475.35871 518.142,475.35871 C 518.142,479.47997 518.142,483.61361 518.142,487.73487 C 509.88697,487.73487 501.64432,487.73487 493.38929,487.73487 C 489.26796,487.73487 485.13426,487.73487 481.01294,487.73487 z"
   id="path57"
   style="fill:#bfda33;fill-rule:evenodd" />
	<path
   d="M 518.142,487.73487 C 518.142,483.61361 518.142,479.47997 518.142,475.35871 C 522.26332,475.35871 526.39702,475.35871 530.51835,475.35871 C 530.51835,479.47997 530.51835,483.61361 530.51835,487.73487 C 526.38465,487.73487 522.26332,487.73487 518.142,487.73487 z"
   id="path59"
   style="fill:#42a212;fill-rule:evenodd" />
	<path
   d="M 530.51835,487.73487 L 530.51835,475.35871 L 542.8947,475.35871 L 542.8947,487.73487 L 530.51835,487.73487 z"
   id="path61"
   style="fill:#bfda33;fill-rule:evenodd" />
	<path
   d="M 617.14045,475.35871 L 617.14045,487.73487 L 604.76409,487.73487 L 604.76409,475.35871 L 617.14045,475.35871 z"
   id="path63"
   style="fill:#bfda33;fill-rule:evenodd" />
	<path
   d="M 617.14045,487.73487 L 617.14045,475.35871 L 629.50442,475.35871 L 629.50442,487.73487 L 617.14045,487.73487 z"
   id="path65"
   style="fill:#42a212;fill-rule:evenodd" />
	<path
   d="M 629.50442,487.73487 L 629.50442,475.35871 L 666.63348,475.35871 L 666.63348,487.73487 L 629.50442,487.73487 z"
   id="path67"
   style="fill:#bfda33;fill-rule:evenodd" />
	
	<path
   d="M 307.76874,487.73487 L 307.76874,574.36799 L 295.39239,574.36799 L 295.39239,586.74415 L 283.01604,586.74415 L 283.01604,574.36799 L 270.63968,574.36799 L 270.63968,586.74415 L 258.26333,586.74415 L 258.26333,574.36799 L 245.88698,574.36799 L 245.88698,586.74415 L 233.51062,586.74415 L 233.51062,574.36799 L 221.13427,574.36799 L 221.13427,561.99183 L 208.75792,561.99183 L 208.75792,487.73487 L 307.76874,487.73487 z"
   id="path71"
   style="fill:#42a212;fill-rule:evenodd" />
	
	<path
   d="M 481.01294,487.73487 L 518.142,487.73487 L 518.142,500.11103 L 505.76564,500.11103 L 505.76564,512.48719 L 518.142,512.48719 L 518.142,524.86335 L 505.76564,524.86335 L 505.76564,537.23951 L 518.142,537.23951 L 518.142,549.61567 L 505.76564,549.61567 L 505.76564,561.99183 L 518.142,561.99183 L 518.142,611.49647 L 505.76564,611.49647 L 505.76564,599.12031 L 505.76564,586.74415 L 481.01294,586.74415 L 481.01294,487.73487 z"
   id="path75"
   style="fill:#42a212;fill-rule:evenodd" />
	<path
   d="M 518.142,500.11103 C 518.142,495.98977 518.142,491.85613 518.142,487.73487 C 522.26332,487.73487 526.39702,487.73487 530.51835,487.73487 C 530.51835,491.85613 530.51835,495.98977 530.51835,500.11103 C 526.38465,500.11103 522.26332,500.11103 518.142,500.11103 z"
   id="path77"
   style="fill:#bfda33;fill-rule:evenodd" />
	<path
   d="M 617.14045,500.11103 L 617.14045,487.73487 L 629.50442,487.73487 L 629.50442,500.11103 L 617.14045,500.11103 z"
   id="path79"
   style="fill:#bfda33;fill-rule:evenodd" />
	
	
	<path
   d="M 332.52145,413.47791 L 456.28498,413.47791 L 456.28498,574.36799 L 332.52145,574.36799 L 332.52145,413.47791 z"
   id="path85"
   style="fill:#42a212;fill-rule:evenodd" /><path
   d="M 332.52145,438.23023 L 456.28498,438.23023 L 456.28498,475.35871 L 332.53383,475.35871 L 332.52145,438.23023 z"
   id="path35"
   style="fill:#bfda33;fill-rule:evenodd" /><path
   d="M 332.52145,500.11103 L 332.52145,487.73487 L 456.28498,487.73487 L 456.28498,500.11103 L 332.52145,500.11103 z"
   id="path73"
   style="fill:#bfda33;fill-rule:evenodd" />
	<path
   d="M 518.142,500.11103 L 518.142,512.48719 L 505.76564,512.48719 L 505.76564,500.11103 L 518.142,500.11103 z"
   id="path87"
   style="fill:#bfda33;fill-rule:evenodd" /><path
   d="M 320.1451,363.98565 L 320.1451,401.11413 L 468.66134,401.11413 L 468.66134,388.73797 L 679.04697,388.73797 L 679.04697,401.11413 L 839.91481,401.11413 L 839.91481,363.98565 L 976.04232,363.98565 L 976.04232,623.87263 L 839.91481,623.87263 L 839.91481,586.74415 L 679.04697,586.74415 L 679.04697,599.12031 L 654.29426,599.12031 L 654.29426,623.87263 L 641.91791,623.87263 L 641.91791,1019.8726 L 691.42332,1019.8726 L 691.42332,1155.998 L 456.28498,1155.998 L 456.28498,1019.8726 L 505.7904,1019.8726 L 505.7904,636.24879 L 505.7904,623.87263 L 493.41404,623.87263 L 493.48372,611.49647 L 641.91791,611.49647 L 641.91791,586.74415 L 666.67061,586.74415 L 666.67061,401.10175 L 481.03769,401.10175 L 481.03769,586.73177 L 505.7904,586.73177 L 505.7904,599.10793 L 493.41404,599.10793 L 468.66134,599.10793 L 468.66134,586.73177 L 320.1451,586.73177 L 320.1451,623.86025 L 184.00521,623.86025 L 184.00521,363.96089 L 320.1451,363.98565 z M 307.78112,611.48409 L 307.78112,376.33705 L 196.39394,376.33705 L 196.39394,611.48409 L 307.78112,611.48409 z M 852.25403,611.50884 L 963.62883,611.50884 L 963.62883,376.36181 L 852.25403,376.36181 L 852.25403,611.50884 z M 332.52145,574.36799 L 456.28498,574.36799 L 456.28498,413.47791 L 332.52145,413.47791 L 332.52145,574.36799 z M 691.38619,574.36799 L 827.50132,574.36799 L 827.50132,413.47791 L 691.38619,413.47791 L 691.38619,574.36799 z M 629.5168,1007.4593 L 629.5168,636.21166 L 518.142,636.21166 L 518.142,1007.4593 L 629.5168,1007.4593 z M 679.02221,1143.5847 L 679.02221,1032.2116 L 468.63658,1032.2116 L 468.63658,1143.5847 L 679.02221,1143.5847 z"
   id="path5"
   style="fill-rule:evenodd" />
	<path
   d="M 518.142,512.48719 C 518.142,508.36593 518.142,504.23229 518.142,500.11103 C 522.26332,500.11103 526.39702,500.11103 530.51835,500.11103 C 530.51835,504.23229 530.51835,508.36593 530.51835,512.48719 C 526.38465,512.48719 522.26332,512.48719 518.142,512.48719 z"
   id="path89"
   style="fill:#42a212;fill-rule:evenodd" />
	<path
   d="M 530.51835,512.48719 L 530.51835,500.11103 L 542.8947,500.11103 L 542.8947,512.48719 L 530.51835,512.48719 z"
   id="path91"
   style="fill:#bfda33;fill-rule:evenodd" />
	<path
   d="M 617.14045,500.11103 L 617.14045,512.48719 L 604.76409,512.48719 L 604.76409,500.11103 L 617.14045,500.11103 z"
   id="path93"
   style="fill:#bfda33;fill-rule:evenodd" />
	<path
   d="M 691.38619,413.09054 L 827.50132,413.09054 L 827.50132,574.36799 L 691.38619,574.36799 L 691.38619,413.09054 z"
   id="path95"
   style="fill:#42a212;fill-rule:evenodd" /><path
   d="M 691.38619,438.23023 L 827.50132,438.23023 L 827.50132,475.35871 L 691.38619,475.35871 L 691.38619,438.23023 z"
   id="path37"
   style="fill:#bfda33;fill-rule:evenodd" /><path
   d="M 691.38619,500.11103 L 691.38619,487.73487 L 827.50132,487.73487 L 827.50132,500.11103 L 691.38619,500.11103 z"
   id="path81"
   style="fill:#bfda33;fill-rule:evenodd" />
	<path
   d="M 518.142,524.86335 C 518.142,520.74209 518.142,516.60845 518.142,512.48719 C 522.26332,512.48719 526.39702,512.48719 530.51835,512.48719 C 530.51835,516.60845 530.51835,520.74209 530.51835,524.86335 C 526.38465,524.86335 522.26332,524.86335 518.142,524.86335 z"
   id="path97"
   style="fill:#bfda33;fill-rule:evenodd" />
	<path
   d="M 617.14045,524.86335 L 617.14045,512.48719 L 629.50442,512.48719 L 629.50442,524.86335 L 617.14045,524.86335 z"
   id="path99"
   style="fill:#bfda33;fill-rule:evenodd" />
	<path
   d="M 518.142,524.86335 L 518.142,537.23951 L 505.76564,537.23951 L 505.76564,524.86335 L 518.142,524.86335 z"
   id="path101"
   style="fill:#bfda33;fill-rule:evenodd" />
	<path
   d="M 518.142,537.22713 C 518.142,533.10587 518.142,528.97223 518.142,524.85097 C 522.26332,524.85097 526.39702,524.85097 530.51835,524.85097 C 530.51835,528.97223 530.51835,533.10587 530.51835,537.22713 C 526.38465,537.22713 522.26332,537.22713 518.142,537.22713 z"
   id="path103"
   style="fill:#42a212;fill-rule:evenodd" />
	<path
   d="M 530.51835,537.22713 L 530.51835,524.85097 L 542.8947,524.85097 L 542.8947,537.22713 L 530.51835,537.22713 z"
   id="path105"
   style="fill:#bfda33;fill-rule:evenodd" />
	<path
   d="M 617.14045,524.86335 L 617.14045,537.23951 L 604.76409,537.23951 L 604.76409,524.86335 L 617.14045,524.86335 z"
   id="path107"
   style="fill:#bfda33;fill-rule:evenodd" />
	<path
   d="M 518.142,549.60329 C 518.142,545.48203 518.142,541.34839 518.142,537.22713 C 522.26332,537.22713 526.39702,537.22713 530.51835,537.22713 C 530.51835,541.34839 530.51835,545.48203 530.51835,549.60329 C 526.38465,549.60329 522.26332,549.60329 518.142,549.60329 z"
   id="path109"
   style="fill:#bfda33;fill-rule:evenodd" />
	<path
   d="M 617.14045,549.60329 L 617.14045,537.22713 L 629.50442,537.22713 L 629.50442,549.60329 L 617.14045,549.60329 z"
   id="path111"
   style="fill:#bfda33;fill-rule:evenodd" />
	<path
   d="M 332.52145,561.97945 L 332.52145,549.60329 L 344.8978,549.60329 L 344.8978,561.97945 L 332.52145,561.97945 z"
   id="path113"
   style="fill:#bfda33;fill-rule:evenodd" />
	<path
   d="M 357.26178,561.97945 L 357.26178,549.60329 L 369.63813,549.60329 L 369.63813,561.97945 L 357.26178,561.97945 z"
   id="path115"
   style="fill:#bfda33;fill-rule:evenodd" />
	<path
   d="M 382.01449,561.97945 L 382.01449,549.60329 L 394.39084,549.60329 L 394.39084,561.97945 L 382.01449,561.97945 z"
   id="path117"
   style="fill:#bfda33;fill-rule:evenodd" />
	<path
   d="M 406.76719,561.97945 L 406.76719,549.60329 L 419.14355,549.60329 L 419.14355,561.97945 L 406.76719,561.97945 z"
   id="path119"
   style="fill:#bfda33;fill-rule:evenodd" />
	<path
   d="M 431.5199,561.97945 L 431.5199,549.60329 L 443.89625,549.60329 L 443.89625,561.97945 L 431.5199,561.97945 z"
   id="path121"
   style="fill:#bfda33;fill-rule:evenodd" />
	<path
   d="M 518.142,549.60329 L 518.142,561.97945 L 505.76564,561.97945 L 505.76564,549.60329 L 518.142,549.60329 z"
   id="path123"
   style="fill:#bfda33;fill-rule:evenodd" />
	<path
   d="M 518.142,561.97945 C 518.142,557.85819 518.142,553.72455 518.142,549.60329 C 522.26332,549.60329 526.39702,549.60329 530.51835,549.60329 C 530.51835,553.72455 530.51835,557.85819 530.51835,561.97945 C 526.38465,561.97945 522.26332,561.97945 518.142,561.97945 z"
   id="path125"
   style="fill:#42a212;fill-rule:evenodd" />
	<path
   d="M 530.51835,561.97945 L 530.51835,549.60329 L 542.8947,549.60329 L 542.8947,561.97945 L 530.51835,561.97945 z"
   id="path127"
   style="fill:#bfda33;fill-rule:evenodd" />
	<path
   d="M 617.14045,549.60329 L 617.14045,561.97945 L 604.76409,561.97945 L 604.76409,549.60329 L 617.14045,549.60329 z"
   id="path129"
   style="fill:#bfda33;fill-rule:evenodd" />
	<path
   d="M 629.50442,549.60329 L 641.88078,549.60329 L 641.88078,561.97945 L 629.50442,561.97945 L 629.50442,549.60329 z"
   id="path131"
   style="fill:#bfda33;fill-rule:evenodd" />
	<path
   d="M 703.76254,561.97945 L 703.76254,549.60329 L 716.12652,549.60329 L 716.12652,561.97945 L 703.76254,561.97945 z"
   id="path133"
   style="fill:#bfda33;fill-rule:evenodd" />
	<path
   d="M 728.50287,561.97945 L 728.50287,549.60329 L 740.87923,549.60329 L 740.87923,561.97945 L 728.50287,561.97945 z"
   id="path135"
   style="fill:#bfda33;fill-rule:evenodd" />
	<path
   d="M 753.25558,561.97945 L 753.25558,549.60329 L 765.63193,549.60329 L 765.63193,561.97945 L 753.25558,561.97945 z"
   id="path137"
   style="fill:#bfda33;fill-rule:evenodd" />
	<path
   d="M 778.00829,561.97945 L 778.00829,549.60329 L 790.38464,549.60329 L 790.38464,561.97945 L 778.00829,561.97945 z"
   id="path139"
   style="fill:#bfda33;fill-rule:evenodd" />
	<path
   d="M 802.76099,561.97945 L 802.76099,549.60329 L 815.12497,549.60329 L 815.12497,561.97945 L 802.76099,561.97945 z"
   id="path141"
   style="fill:#bfda33;fill-rule:evenodd" />
	
	<path
   d="M 344.8978,574.35561 C 344.8978,570.23435 344.8978,566.10071 344.8978,561.97945 C 349.01913,561.97945 353.15283,561.97945 357.27416,561.97945 C 357.27416,566.10071 357.27416,570.23435 357.27416,574.35561 C 353.14045,574.35561 349.01913,574.35561 344.8978,574.35561 z"
   id="path145"
   style="fill:#bfda33;fill-rule:evenodd" />
	
	<path
   d="M 369.63813,574.35561 C 369.63813,570.23435 369.63813,566.10071 369.63813,561.97945 C 373.75946,561.97945 377.89316,561.97945 382.01449,561.97945 C 382.01449,566.10071 382.01449,570.23435 382.01449,574.35561 C 377.89316,574.35561 373.77184,574.35561 369.63813,574.35561 z"
   id="path149"
   style="fill:#bfda33;fill-rule:evenodd" />
	
	<path
   d="M 394.39084,574.35561 C 394.39084,570.23435 394.39084,566.10071 394.39084,561.97945 C 398.51217,561.97945 402.64587,561.97945 406.76719,561.97945 C 406.76719,566.10071 406.76719,570.23435 406.76719,574.35561 C 402.64587,574.35561 398.51217,574.35561 394.39084,574.35561 z"
   id="path153"
   style="fill:#bfda33;fill-rule:evenodd" />
	
	<path
   d="M 419.14355,574.35561 C 419.14355,570.23435 419.14355,566.10071 419.14355,561.97945 C 423.26487,561.97945 427.39857,561.97945 431.5199,561.97945 C 431.5199,566.10071 431.5199,570.23435 431.5199,574.35561 C 427.3862,574.35561 423.26487,574.35561 419.14355,574.35561 z"
   id="path157"
   style="fill:#bfda33;fill-rule:evenodd" />
	
	<path
   d="M 443.89625,574.35561 L 443.89625,561.97945 L 456.27261,561.97945 L 456.27261,574.35561 L 443.89625,574.35561 z"
   id="path161"
   style="fill:#bfda33;fill-rule:evenodd" />
	<path
   d="M 518.142,561.97945 L 530.51835,561.97945 L 530.51835,574.35561 L 555.27106,574.35561 L 555.27106,561.97945 L 567.64741,561.97945 L 567.64741,574.35561 L 580.02376,574.35561 L 580.02376,611.48409 L 567.64741,611.48409 L 567.64741,586.73177 L 555.27106,586.73177 L 555.27106,611.48409 L 518.142,611.48409 L 518.142,561.97945 z"
   id="path163"
   style="fill:#bfda33;fill-rule:evenodd" />
	<path
   d="M 691.38619,561.97945 L 703.76254,561.97945 L 703.76254,574.35561 L 691.38619,574.35561 L 691.38619,561.97945 z"
   id="path165"
   style="fill:#bfda33;fill-rule:evenodd" />
	
	<path
   d="M 716.12652,574.35561 L 716.12652,561.97945 L 728.50287,561.97945 L 728.50287,574.35561 L 716.12652,574.35561 z"
   id="path169"
   style="fill:#bfda33;fill-rule:evenodd" />
	
	<path
   d="M 740.87923,574.35561 C 740.87923,570.23435 740.87923,566.10071 740.87923,561.97945 C 745.01293,561.97945 749.13425,561.97945 753.25558,561.97945 C 753.25558,566.10071 753.25558,570.23435 753.25558,574.35561 C 749.13425,574.35561 745.01293,574.35561 740.87923,574.35561 z"
   id="path173"
   style="fill:#bfda33;fill-rule:evenodd" />
	
	<path
   d="M 765.63193,574.35561 C 765.63193,570.23435 765.63193,566.10071 765.63193,561.97945 C 769.75326,561.97945 773.88696,561.97945 778.00829,561.97945 C 778.00829,566.10071 778.00829,570.23435 778.00829,574.35561 C 773.88696,574.35561 769.75326,574.35561 765.63193,574.35561 z"
   id="path177"
   style="fill:#bfda33;fill-rule:evenodd" />
	
	<path
   d="M 790.38464,574.35561 L 790.38464,561.97945 L 802.76099,561.97945 L 802.76099,574.35561 L 790.38464,574.35561 z"
   id="path181"
   style="fill:#bfda33;fill-rule:evenodd" />
	
	<path
   d="M 815.12497,574.35561 L 815.12497,561.97945 L 827.50132,561.97945 L 827.50132,574.35561 L 815.12497,574.35561 z"
   id="path185"
   style="fill:#bfda33;fill-rule:evenodd" />
	<path
   d="M 221.14665,574.35561 L 221.14665,586.73177 L 208.77029,586.73177 L 208.77029,574.35561 L 221.14665,574.35561 z"
   id="path187"
   style="fill:#42a212;fill-rule:evenodd" />
	<path
   d="M 221.14665,586.73177 L 221.14665,574.35561 L 233.523,574.35561 L 233.523,586.73177 L 221.14665,586.73177 z"
   id="path189"
   style="fill:#bfda33;fill-rule:evenodd" />
	<path
   d="M 245.89935,586.73177 L 245.89935,574.35561 L 258.27571,574.35561 L 258.27571,586.73177 L 245.89935,586.73177 z"
   id="path191"
   style="fill:#bfda33;fill-rule:evenodd" />
	<path
   d="M 270.63968,586.73177 L 270.63968,574.35561 L 283.01604,574.35561 L 283.01604,586.73177 L 270.63968,586.73177 z"
   id="path193"
   style="fill:#bfda33;fill-rule:evenodd" />
	<path
   d="M 295.39239,586.73177 L 295.39239,574.35561 L 307.76874,574.35561 L 307.76874,586.73177 L 295.39239,586.73177 z"
   id="path195"
   style="fill:#bfda33;fill-rule:evenodd" />
	<path
   d="M 852.25403,586.73177 L 852.25403,574.35561 L 864.63038,574.35561 L 864.63038,586.73177 L 852.25403,586.73177 z"
   id="path197"
   style="fill:#bfda33;fill-rule:evenodd" />
	<path
   d="M 877.00674,586.73177 L 877.00674,574.35561 L 889.38309,574.35561 L 889.38309,586.73177 L 877.00674,586.73177 z"
   id="path199"
   style="fill:#bfda33;fill-rule:evenodd" />
	<path
   d="M 901.75944,586.73177 L 901.75944,574.35561 L 914.12342,574.35561 L 914.12342,586.73177 L 901.75944,586.73177 z"
   id="path201"
   style="fill:#bfda33;fill-rule:evenodd" />
	<path
   d="M 926.49977,586.73177 L 926.49977,574.35561 L 938.87613,574.35561 L 938.87613,586.73177 L 926.49977,586.73177 z"
   id="path203"
   style="fill:#bfda33;fill-rule:evenodd" />
	
	<path
   d="M 221.14665,599.10793 C 221.14665,594.98667 221.14665,590.85303 221.14665,586.73177 C 225.26797,586.73177 229.40167,586.73177 233.523,586.73177 C 233.523,590.85303 233.523,594.98667 233.523,599.10793 C 229.3893,599.10793 225.26797,599.10793 221.14665,599.10793 z"
   id="path207"
   style="fill:#42a212;fill-rule:evenodd" />
	<path
   d="M 233.523,599.10793 C 233.523,594.98667 233.523,590.85303 233.523,586.73177 C 237.64433,586.73177 241.77803,586.73177 245.89935,586.73177 C 245.89935,590.85303 245.89935,594.98667 245.89935,599.10793 C 241.76565,599.10793 237.64433,599.10793 233.523,599.10793 z"
   id="path209"
   style="fill:#bfda33;fill-rule:evenodd" />
	<path
   d="M 245.89935,599.10793 L 245.89935,586.73177 L 258.27571,586.73177 L 258.27571,599.10793 L 245.89935,599.10793 z"
   id="path211"
   style="fill:#42a212;fill-rule:evenodd" />
	<path
   d="M 258.26333,599.10793 C 258.26333,594.98667 258.26333,590.85303 258.26333,586.73177 C 262.38466,586.73177 266.51836,586.73177 270.63968,586.73177 C 270.63968,590.85303 270.63968,594.98667 270.63968,599.10793 C 266.51836,599.10793 262.39703,599.10793 258.26333,599.10793 z"
   id="path213"
   style="fill:#bfda33;fill-rule:evenodd" />
	<path
   d="M 270.63968,599.10793 L 270.63968,586.73177 L 283.01604,586.73177 L 283.01604,599.10793 L 270.63968,599.10793 z"
   id="path215"
   style="fill:#42a212;fill-rule:evenodd" />
	<path
   d="M 283.01604,599.10793 C 283.01604,594.98667 283.01604,590.85303 283.01604,586.73177 C 287.13736,586.73177 291.27106,586.73177 295.39239,586.73177 C 295.39239,590.85303 295.39239,594.98667 295.39239,599.10793 C 291.27106,599.10793 287.14974,599.10793 283.01604,599.10793 z"
   id="path217"
   style="fill:#bfda33;fill-rule:evenodd" />
	<path
   d="M 295.39239,599.10793 L 295.39239,586.73177 L 307.76874,586.73177 L 307.76874,599.10793 L 295.39239,599.10793 z"
   id="path219"
   style="fill:#42a212;fill-rule:evenodd" />
	
	<path
   d="M 567.63503,611.48409 L 555.25868,611.48409 L 555.25868,599.10793 L 555.25868,586.73177 L 567.63503,586.73177 L 567.63503,599.10793 L 567.63503,611.48409 z"
   id="path223"
   style="fill:#42a212;fill-rule:evenodd" />
	
	
	<path
   d="M 864.63038,599.10793 L 864.63038,586.73177 L 877.00674,586.73177 L 877.00674,599.10793 L 864.63038,599.10793 z"
   id="path229"
   style="fill:#bfda33;fill-rule:evenodd" />
	
	<path
   d="M 889.38309,599.10793 L 889.38309,586.73177 L 901.75944,586.73177 L 901.75944,599.10793 L 889.38309,599.10793 z"
   id="path233"
   style="fill:#bfda33;fill-rule:evenodd" />
	
	<path
   d="M 914.12342,599.10793 L 914.12342,586.73177 L 926.49977,586.73177 L 926.49977,599.10793 L 914.12342,599.10793 z"
   id="path237"
   style="fill:#bfda33;fill-rule:evenodd" />
	
	<path
   d="M 208.77029,611.48409 L 208.77029,599.10793 L 221.14665,599.10793 L 221.14665,611.48409 L 208.77029,611.48409 z"
   id="path241"
   style="fill:#42a212;fill-rule:evenodd" />
	<path
   d="M 221.14665,611.48409 C 221.14665,607.36283 221.14665,603.22919 221.14665,599.10793 C 225.26797,599.10793 229.40167,599.10793 233.523,599.10793 C 233.523,603.22919 233.523,607.36283 233.523,611.48409 C 229.3893,611.48409 225.26797,611.48409 221.14665,611.48409 z"
   id="path243"
   style="fill:#bfda33;fill-rule:evenodd" />
	<path
   d="M 233.523,611.48409 C 233.523,607.36283 233.523,603.22919 233.523,599.10793 C 237.64433,599.10793 241.77803,599.10793 245.89935,599.10793 C 245.89935,603.22919 245.89935,607.36283 245.89935,611.48409 C 241.76565,611.48409 237.64433,611.48409 233.523,611.48409 z"
   id="path245"
   style="fill:#42a212;fill-rule:evenodd" />
	<path
   d="M 245.89935,611.48409 L 245.89935,599.10793 L 258.27571,599.10793 L 258.27571,611.48409 L 245.89935,611.48409 z"
   id="path247"
   style="fill:#bfda33;fill-rule:evenodd" />
	<path
   d="M 258.26333,611.48409 C 258.26333,607.36283 258.26333,603.22919 258.26333,599.10793 C 262.38466,599.10793 266.51836,599.10793 270.63968,599.10793 C 270.63968,603.22919 270.63968,607.36283 270.63968,611.48409 C 266.51836,611.48409 262.39703,611.48409 258.26333,611.48409 z"
   id="path249"
   style="fill:#42a212;fill-rule:evenodd" />
	<path
   d="M 270.63968,611.48409 L 270.63968,599.10793 L 283.01604,599.10793 L 283.01604,611.48409 L 270.63968,611.48409 z"
   id="path251"
   style="fill:#bfda33;fill-rule:evenodd" />
	<path
   d="M 283.01604,611.48409 C 283.01604,607.36283 283.01604,603.22919 283.01604,599.10793 C 287.13736,599.10793 291.27106,599.10793 295.39239,599.10793 C 295.39239,603.22919 295.39239,607.36283 295.39239,611.48409 C 291.27106,611.48409 287.14974,611.48409 283.01604,611.48409 z"
   id="path253"
   style="fill:#42a212;fill-rule:evenodd" />
	<path
   d="M 295.39239,611.48409 L 295.39239,599.10793 L 307.76874,599.10793 L 307.76874,611.48409 L 295.39239,611.48409 z"
   id="path255"
   style="fill:#bfda33;fill-rule:evenodd" />
	<path
   d="M 493.52605,616.13258 L 493.38929,595.62157 L 505.76564,595.62157 L 505.76564,616.13258 L 493.52605,616.13258 z"
   id="path257"
   style="fill:#0a0a0a;fill-rule:evenodd" />
	
	
	<path
   d="M 877.00674,611.48409 L 877.00674,599.10793 L 889.38309,599.10793 L 889.38309,611.48409 L 877.00674,611.48409 z"
   id="path263"
   style="fill:#bfda33;fill-rule:evenodd" />
	
	<path
   d="M 901.75944,611.48409 L 901.75944,599.10793 L 914.12342,599.10793 L 914.12342,611.48409 L 901.75944,611.48409 z"
   id="path267"
   style="fill:#bfda33;fill-rule:evenodd" />
	
	<path
   d="M 926.49977,611.48409 L 926.49977,599.10793 L 938.87613,599.10793 L 938.87613,611.48409 L 926.49977,611.48409 z"
   id="path271"
   style="fill:#bfda33;fill-rule:evenodd" />
	
	
	
	
	
	<path
   d="M 517.3561,636.22404 L 629.50442,636.22404 L 629.50442,1007.4717 L 517.3561,1007.4717 L 517.3561,636.22404 z"
   id="path283"
   style="fill:#42a212;fill-rule:evenodd" /><path
   d="M 530.51835,636.22404 L 567.64741,636.22404 L 567.64741,1007.4717 L 530.51835,1007.4717 L 530.51835,636.22404 z"
   id="path277"
   style="fill:#bfda33;fill-rule:evenodd" /><path
   d="M 580.01139,636.22404 L 592.38774,636.22404 L 592.38774,1007.4717 L 580.01139,1007.4717 L 580.01139,636.22404 z"
   id="path281"
   style="fill:#bfda33;fill-rule:evenodd" />
	
	
	
	
	
	<path
   d="M 473.6521,1032.2116 L 666.63348,1032.2116 L 666.63348,1143.5847 L 473.6521,1143.5847 L 473.6521,1032.2116 z"
   id="path295"
   style="fill:#42a212;fill-rule:evenodd" /><path
   d="M 481.01294,1032.2116 L 481.01294,1106.4562 L 493.38929,1106.4562 L 493.38929,1118.8324 L 481.01294,1118.8324 L 481.01294,1131.2086 L 493.38929,1131.2086 L 493.38929,1143.5847 L 481.01294,1143.5847 L 468.63658,1143.5847 L 468.63658,1032.2116 L 481.01294,1032.2116 z"
   id="path285"
   style="fill:#bfda33;fill-rule:evenodd" /><path
   d="M 567.63503,1032.2116 L 580.01139,1032.2116 L 580.01139,1106.4562 L 567.63503,1106.4562 L 567.63503,1032.2116 z"
   id="path293"
   style="fill:#bfda33;fill-rule:evenodd" />
	<path
   d="M 666.63348,1032.2116 L 679.00984,1032.2116 L 679.00984,1143.5847 L 666.63348,1143.5847 L 654.25713,1143.5847 L 654.25713,1131.2086 L 666.63348,1131.2086 L 666.63348,1118.8324 L 654.25713,1118.8324 L 654.25713,1106.4562 L 666.63348,1106.4562 L 666.63348,1094.0801 L 666.63348,1069.3401 L 666.63348,1056.964 L 666.63348,1032.2116 z"
   id="path297"
   style="fill:#bfda33;fill-rule:evenodd" />
	<path
   d="M 505.76564,1118.8324 L 505.76564,1106.4562 L 518.142,1106.4562 L 518.142,1118.8324 L 505.76564,1118.8324 z"
   id="path299"
   style="fill:#bfda33;fill-rule:evenodd" />
	
	
	<path
   d="M 555.25868,1118.8324 L 555.25868,1106.4562 L 567.63503,1106.4562 L 567.63503,1118.8324 L 555.25868,1118.8324 z"
   id="path305"
   style="fill:#bfda33;fill-rule:evenodd" />
	
	<path
   d="M 580.01139,1118.8324 L 580.01139,1106.4562 L 592.38774,1106.4562 L 592.38774,1118.8324 L 580.01139,1118.8324 z"
   id="path309"
   style="fill:#bfda33;fill-rule:evenodd" />
	<path
   d="M 604.76409,1118.8324 L 604.76409,1106.4562 L 617.14045,1106.4562 L 617.14045,1118.8324 L 604.76409,1118.8324 z"
   id="path311"
   style="fill:#bfda33;fill-rule:evenodd" />
	<path
   d="M 629.50442,1118.8324 L 629.50442,1106.4562 L 641.88078,1106.4562 L 641.88078,1118.8324 L 629.50442,1118.8324 z"
   id="path313"
   style="fill:#bfda33;fill-rule:evenodd" />
	
	<path
   d="M 493.38929,1131.2086 L 493.38929,1118.8324 L 505.76564,1118.8324 L 505.76564,1131.2086 L 493.38929,1131.2086 z"
   id="path317"
   style="fill:#bfda33;fill-rule:evenodd" />
	
	<path
   d="M 518.142,1131.2086 L 518.142,1118.8324 L 530.51835,1118.8324 L 530.51835,1131.2086 L 518.142,1131.2086 z"
   id="path321"
   style="fill:#bfda33;fill-rule:evenodd" /><path
   d="M 518.142,1032.2116 L 555.27106,1032.2116 L 555.27106,1106.4562 L 542.8947,1106.4562 L 542.8947,1118.8324 L 530.51835,1118.8324 L 530.51835,1106.4562 L 518.142,1106.4562 L 518.142,1032.2116 z"
   id="path289"
   style="fill:#bfda33;fill-rule:evenodd" />
	
	<path
   d="M 542.8947,1131.2086 L 542.8947,1118.8324 L 555.27106,1118.8324 L 555.27106,1131.2086 L 542.8947,1131.2086 z"
   id="path325"
   style="fill:#bfda33;fill-rule:evenodd" />
	
	<path
   d="M 567.63503,1131.2086 L 567.63503,1118.8324 L 580.01139,1118.8324 L 580.01139,1131.2086 L 567.63503,1131.2086 z"
   id="path329"
   style="fill:#bfda33;fill-rule:evenodd" />
	
	<path
   d="M 592.38774,1131.2086 C 592.38774,1127.0873 592.38774,1122.9537 592.38774,1118.8324 C 596.50907,1118.8324 600.63039,1118.8324 604.76409,1118.8324 C 604.76409,1122.9537 604.76409,1127.0873 604.76409,1131.2086 C 600.63039,1131.2086 596.50907,1131.2086 592.38774,1131.2086 z"
   id="path333"
   style="fill:#bfda33;fill-rule:evenodd" />
	
	<path
   d="M 617.14045,1131.2086 L 617.14045,1118.8324 L 629.50442,1118.8324 L 629.50442,1131.2086 L 617.14045,1131.2086 z"
   id="path337"
   style="fill:#bfda33;fill-rule:evenodd" />
	
	<path
   d="M 641.88078,1131.2086 L 641.88078,1118.8324 L 654.25713,1118.8324 L 654.25713,1131.2086 L 641.88078,1131.2086 z"
   id="path341"
   style="fill:#bfda33;fill-rule:evenodd" />
	
	
	<path
   d="M 505.76564,1143.5847 L 505.76564,1131.2086 L 518.142,1131.2086 L 518.142,1143.5847 L 505.76564,1143.5847 z"
   id="path347"
   style="fill:#bfda33;fill-rule:evenodd" />
	
	<path
   d="M 530.51835,1143.5847 L 530.51835,1131.2086 L 542.8947,1131.2086 L 542.8947,1143.5847 L 530.51835,1143.5847 z"
   id="path351"
   style="fill:#bfda33;fill-rule:evenodd" />
	
	<path
   d="M 555.25868,1143.5847 L 555.25868,1131.2086 L 567.63503,1131.2086 L 567.63503,1143.5847 L 555.25868,1143.5847 z"
   id="path355"
   style="fill:#bfda33;fill-rule:evenodd" />
	
	<path
   d="M 580.01139,1143.5847 C 580.01139,1139.4635 580.01139,1135.3298 580.01139,1131.2086 C 584.13271,1131.2086 588.25404,1131.2086 592.38774,1131.2086 C 592.38774,1135.3298 592.38774,1139.4635 592.38774,1143.5847 C 588.25404,1143.5847 584.13271,1143.5847 580.01139,1143.5847 z"
   id="path359"
   style="fill:#bfda33;fill-rule:evenodd" />
	
	<path
   d="M 604.76409,1143.5847 C 604.76409,1139.4635 604.76409,1135.3298 604.76409,1131.2086 C 608.88542,1131.2086 613.00674,1131.2086 617.14045,1131.2086 C 617.14045,1135.3298 617.14045,1139.4635 617.14045,1143.5847 C 613.00674,1143.5847 608.88542,1143.5847 604.76409,1143.5847 z"
   id="path363"
   style="fill:#bfda33;fill-rule:evenodd" />
	
	<path
   d="M 629.50442,1143.5847 L 629.50442,1131.2086 L 641.88078,1131.2086 L 641.88078,1143.5847 L 629.50442,1143.5847 z"
   id="path367"
   style="fill:#bfda33;fill-rule:evenodd" />
	
</g>
</svg>