<?xml version="1.0" encoding="UTF-8" standalone="no"?>
<!-- Created with Inkscape (http://www.inkscape.org/) -->

<svg
   xmlns:svg="http://www.w3.org/2000/svg"
   xmlns="http://www.w3.org/2000/svg"
   version="1.1"
   width="64"
   height="64"
   viewBox="0 0 64 64"
   id="Layer_1"
   xml:space="preserve"><defs
   id="defs372" />
<g
   transform="translate(-273.999,-363.998)"
   id="g3">
	
	
	<path
   d="m 276,365 0,1 5,0 0,1 1,0 0,-1 1,0 0,1 1,0 0,1 -1,0 0,1 -6.999,0 0,3 8,0 0,2 -7.999,0 0,4 0,1 0,1 1,0 0,1 -1,0 0,1 1,0 0,1 -1,0 0,1 -1,0 0,-19 0.998,0 z"
   id="path9"
   style="fill:#bfda33;fill-rule:evenodd" />
	<path
   d="m 276,365 8,0 0,2 -1,0 0,-1 -1,0 0,1 -1,0 0,-1 -5,0 0,-1 z"
   id="path11"
   style="fill:#42a212;fill-rule:evenodd" />
	<path
   d="m 335.992,365 0.0994,19.00913 -8.12579,0.0212 L 327.993,365 l 7.999,0 z"
   id="path13"
   style="fill:#42a212;fill-rule:evenodd" /><path
   d="m 327.993,382.998 1,0 -0.008,1.125 -0.99676,-0.10547 0.005,-1.01953 z"
   id="path259"
   style="fill:#bfda33;fill-rule:evenodd" />
	<path
   d="m 335.992,365 1,0 0,19 -1,0 0,-1 -1,0 0,-1 1,0 0,-1 -1,0 0,-1 1,0 0,-6 -7.999,0 0,-2 7.999,0 0,-3 -6.999,0 0,-1 -1,0 0,-1 1,0 0,-1 1,0 0,1 1,0 0,-1 4.999,0 0,-1 z"
   id="path15"
   style="fill:#bfda33;fill-rule:evenodd" />
	<path
   d="m 312.995,369 -3,0 0,1 -0.999,0 0,-2 -7,0 0,2 -1,0 0,-1 -3,0 0,-2 4,0 4,0 3.999,0 1,0 2,0 0,2 z"
   id="path17"
   style="fill:#42a212;fill-rule:evenodd" />
	<path
   d="m 283.999,368 0,4 -8,0 0,-3 6.999,0 0,-1 1.001,0 z"
   id="path19"
   style="fill:#42a212;fill-rule:evenodd" />
	
	<path
   d="m 308.996,369.999 -1,0 0,-1 -1,0 -1,0 -1,0 -1,0 -1,0 0,1 -1,0 0,-2 2,0 4,0 1,0 0,2 z"
   id="path23"
   style="fill:#bfda33;fill-rule:evenodd" />
	
	
	<path
   d="m 297.997,369 3,0 0,1 1,0 0,1 -1,0 0,1 -3,0 0,-3 z"
   id="path29"
   style="fill:#bfda33;fill-rule:evenodd" />
	<path
   d="m 308.996,369.999 0,1 -1,0 0,1 1,0 0,1 -1,0 0,1 1,0 0,1 -1,0 0,1 1,0 0,1 -1,0 0,1 1,0 0,1 -1,0 0,1 1,0 0,-1 0.999,0 0,1 1,0 0,-1 -1,0 0,-1 -0.999,0 0,-1 0.999,0 0,-1 -0.999,0 0,-1 0.999,0 0,-1 1,0 2,0 0,8 -2,0 0,2 -4.999,0 0,-2 0,-1 -1,0 0,-1 -1,0 0,1 -2,0 0,-1 1,0 0,-1 -1,0 0,-1 1,0 0,-1 -1,0 0,-1 1,0 0,-1 -1,0 0,-1 1,0 0,-1 -1,0 0,-1 1,0 0,-1 -1,0 0,-1 1,0 0,-1 5,0 0,1 1,0 z"
   id="path31"
   style="fill:#42a212;fill-rule:evenodd" />
	<path
   d="m 312.995,369 0,1 0,2 -1,0 -2,0 0,-1 -0.999,0 0,-1 0.999,0 0,-1 1,0 1,0 1,0 z"
   id="path33"
   style="fill:#bfda33;fill-rule:evenodd" />
	
	
	<path
   d="m 300.997,371.999 0,-1 1,0 0,1 -1,0 z"
   id="path39"
   style="fill:#42a212;fill-rule:evenodd" />
	<path
   d="m 301.997,371.999 0,-1 1,0 0,1 -1,0 z"
   id="path41"
   style="fill:#bfda33;fill-rule:evenodd" />
	<path
   d="m 308.996,370.999 0,1 -1,0 0,-1 1,0 z"
   id="path43"
   style="fill:#bfda33;fill-rule:evenodd" />
	<path
   d="m 308.996,371.999 0,-1 0.999,0 0,1 -0.999,0 z"
   id="path45"
   style="fill:#42a212;fill-rule:evenodd" />
	<path
   d="m 297.997,372.999 c 0,-0.333 0,-0.667 0,-1 1,0 2,0 3,0 0,0.333 0,0.667 0,1 -1,0 -2,0 -3,0 z"
   id="path47"
   style="fill:#42a212;fill-rule:evenodd" />
	<path
   d="m 300.997,372.999 c 0,-0.333 0,-0.667 0,-1 0.333,0 0.667,0 1,0 0,0.333 0,0.667 0,1 -0.334,0 -0.667,0 -1,0 z"
   id="path49"
   style="fill:#bfda33;fill-rule:evenodd" />
	<path
   d="m 308.996,372.999 0,-1 0.999,0 0,1 -0.999,0 z"
   id="path51"
   style="fill:#bfda33;fill-rule:evenodd" />
	<path
   d="m 309.995,372.999 0,-1 3,0 0,1 -3,0 z"
   id="path53"
   style="fill:#42a212;fill-rule:evenodd" />
	
	<path
   d="m 297.997,373.999 c 0,-0.333 0,-0.667 0,-1 0.333,0 0.667,0 1,0 0.667,0 1.333,0 2,0 0,0.333 0,0.667 0,1 -0.667,0 -1.333,0 -2,0 -0.333,0 -0.667,0 -1,0 z"
   id="path57"
   style="fill:#bfda33;fill-rule:evenodd" />
	<path
   d="m 300.997,373.999 c 0,-0.333 0,-0.667 0,-1 0.333,0 0.667,0 1,0 0,0.333 0,0.667 0,1 -0.334,0 -0.667,0 -1,0 z"
   id="path59"
   style="fill:#42a212;fill-rule:evenodd" />
	<path
   d="m 301.997,373.999 0,-1 1,0 0,1 -1,0 z"
   id="path61"
   style="fill:#bfda33;fill-rule:evenodd" />
	<path
   d="m 308.996,372.999 0,1 -1,0 0,-1 1,0 z"
   id="path63"
   style="fill:#bfda33;fill-rule:evenodd" />
	<path
   d="m 308.996,373.999 0,-1 0.999,0 0,1 -0.999,0 z"
   id="path65"
   style="fill:#42a212;fill-rule:evenodd" />
	<path
   d="m 309.995,373.999 0,-1 3,0 0,1 -3,0 z"
   id="path67"
   style="fill:#bfda33;fill-rule:evenodd" />
	
	<path
   d="m 283.999,373.999 0,7 -1,0 0,1 -1,0 0,-1 -1,0 0,1 -1,0 0,-1 -1,0 0,1 -1,0 0,-1 -1,0 0,-1 -1,0 0,-6 8,0 z"
   id="path71"
   style="fill:#42a212;fill-rule:evenodd" />
	
	<path
   d="m 297.997,373.999 3,0 0,1 -1,0 0,1 1,0 0,1 -1,0 0,1 1,0 0,1 -1,0 0,1 1,0 0,4 -1,0 0,-1 0,-1 -2,0 0,-8 z"
   id="path75"
   style="fill:#42a212;fill-rule:evenodd" />
	<path
   d="m 300.997,374.999 c 0,-0.333 0,-0.667 0,-1 0.333,0 0.667,0 1,0 0,0.333 0,0.667 0,1 -0.334,0 -0.667,0 -1,0 z"
   id="path77"
   style="fill:#bfda33;fill-rule:evenodd" />
	<path
   d="m 308.996,374.999 0,-1 0.999,0 0,1 -0.999,0 z"
   id="path79"
   style="fill:#bfda33;fill-rule:evenodd" />
	
	
	<path
   d="m 285.999,367.999 10,0 0,13 -10,0 0,-13 z"
   id="path85"
   style="fill:#42a212;fill-rule:evenodd" /><path
   d="m 285.999,369.999 10,0 0,3 -9.999,0 -10e-4,-3 z"
   id="path35"
   style="fill:#bfda33;fill-rule:evenodd" /><path
   d="m 285.999,374.999 0,-1 10,0 0,1 -10,0 z"
   id="path73"
   style="fill:#bfda33;fill-rule:evenodd" />
	<path
   d="m 300.997,374.999 0,1 -1,0 0,-1 1,0 z"
   id="path87"
   style="fill:#bfda33;fill-rule:evenodd" /><path
   d="m 284.999,364 0,3 12,0 0,-1 16.999,0 0,1 12.998,0 0,-3 10.999,0 0,20.999 -10.999,0 0,-3 -12.998,0 0,1 -2,0 0,2 -1,0 0,31.997 4,0 0,10.999 -18.999,0 0,-10.999 4,0 0,-30.997 0,-1 -1,0 0.006,-1 11.99337,0 0,-2 2,0 0,-15 -14.999,0 0,14.999 2,0 0,1 -1,0 -2,0 0,-1 -12,0 0,3 -11,0 0,-21 11,0.002 z m -0.999,19.998 0,-19 -9,0 0,19 9,0 z m 43.993,0.002 8.999,0 0,-19 -8.999,0 0,19 z m -41.994,-3.001 10,0 0,-13 -10,0 0,13 z m 28.996,0 10.998,0 0,-13 -10.998,0 0,13 z m -4.999,34.994 0,-29.997 -8.999,0 0,29.997 8.999,0 z m 4,10.999 0,-8.999 -16.999,0 0,8.999 16.999,0 z"
   id="path5"
   style="fill-rule:evenodd" />
	<path
   d="m 300.997,375.999 c 0,-0.333 0,-0.667 0,-1 0.333,0 0.667,0 1,0 0,0.333 0,0.667 0,1 -0.334,0 -0.667,0 -1,0 z"
   id="path89"
   style="fill:#42a212;fill-rule:evenodd" />
	<path
   d="m 301.997,375.999 0,-1 1,0 0,1 -1,0 z"
   id="path91"
   style="fill:#bfda33;fill-rule:evenodd" />
	<path
   d="m 308.996,374.999 0,1 -1,0 0,-1 1,0 z"
   id="path93"
   style="fill:#bfda33;fill-rule:evenodd" />
	<path
   d="m 314.995,367.96775 10.998,0 0,13.03125 -10.998,0 0,-13.03125 z"
   id="path95"
   style="fill:#42a212;fill-rule:evenodd" /><path
   d="m 314.995,369.999 10.998,0 0,3 -10.998,0 0,-3 z"
   id="path37"
   style="fill:#bfda33;fill-rule:evenodd" /><path
   d="m 314.995,374.999 0,-1 10.998,0 0,1 -10.998,0 z"
   id="path81"
   style="fill:#bfda33;fill-rule:evenodd" />
	<path
   d="m 300.997,376.999 c 0,-0.333 0,-0.667 0,-1 0.333,0 0.667,0 1,0 0,0.333 0,0.667 0,1 -0.334,0 -0.667,0 -1,0 z"
   id="path97"
   style="fill:#bfda33;fill-rule:evenodd" />
	<path
   d="m 308.996,376.999 0,-1 0.999,0 0,1 -0.999,0 z"
   id="path99"
   style="fill:#bfda33;fill-rule:evenodd" />
	<path
   d="m 300.997,376.999 0,1 -1,0 0,-1 1,0 z"
   id="path101"
   style="fill:#bfda33;fill-rule:evenodd" />
	<path
   d="m 300.997,377.998 c 0,-0.333 0,-0.667 0,-1 0.333,0 0.667,0 1,0 0,0.333 0,0.667 0,1 -0.334,0 -0.667,0 -1,0 z"
   id="path103"
   style="fill:#42a212;fill-rule:evenodd" />
	<path
   d="m 301.997,377.998 0,-1 1,0 0,1 -1,0 z"
   id="path105"
   style="fill:#bfda33;fill-rule:evenodd" />
	<path
   d="m 308.996,376.999 0,1 -1,0 0,-1 1,0 z"
   id="path107"
   style="fill:#bfda33;fill-rule:evenodd" />
	<path
   d="m 300.997,378.998 c 0,-0.333 0,-0.667 0,-1 0.333,0 0.667,0 1,0 0,0.333 0,0.667 0,1 -0.334,0 -0.667,0 -1,0 z"
   id="path109"
   style="fill:#bfda33;fill-rule:evenodd" />
	<path
   d="m 308.996,378.998 0,-1 0.999,0 0,1 -0.999,0 z"
   id="path111"
   style="fill:#bfda33;fill-rule:evenodd" />
	<path
   d="m 285.999,379.998 0,-1 1,0 0,1 -1,0 z"
   id="path113"
   style="fill:#bfda33;fill-rule:evenodd" />
	<path
   d="m 287.998,379.998 0,-1 1,0 0,1 -1,0 z"
   id="path115"
   style="fill:#bfda33;fill-rule:evenodd" />
	<path
   d="m 289.998,379.998 0,-1 1,0 0,1 -1,0 z"
   id="path117"
   style="fill:#bfda33;fill-rule:evenodd" />
	<path
   d="m 291.998,379.998 0,-1 1,0 0,1 -1,0 z"
   id="path119"
   style="fill:#bfda33;fill-rule:evenodd" />
	<path
   d="m 293.998,379.998 0,-1 1,0 0,1 -1,0 z"
   id="path121"
   style="fill:#bfda33;fill-rule:evenodd" />
	<path
   d="m 300.997,378.998 0,1 -1,0 0,-1 1,0 z"
   id="path123"
   style="fill:#bfda33;fill-rule:evenodd" />
	<path
   d="m 300.997,379.998 c 0,-0.333 0,-0.667 0,-1 0.333,0 0.667,0 1,0 0,0.333 0,0.667 0,1 -0.334,0 -0.667,0 -1,0 z"
   id="path125"
   style="fill:#42a212;fill-rule:evenodd" />
	<path
   d="m 301.997,379.998 0,-1 1,0 0,1 -1,0 z"
   id="path127"
   style="fill:#bfda33;fill-rule:evenodd" />
	<path
   d="m 308.996,378.998 0,1 -1,0 0,-1 1,0 z"
   id="path129"
   style="fill:#bfda33;fill-rule:evenodd" />
	<path
   d="m 309.995,378.998 1,0 0,1 -1,0 0,-1 z"
   id="path131"
   style="fill:#bfda33;fill-rule:evenodd" />
	<path
   d="m 315.995,379.998 0,-1 0.999,0 0,1 -0.999,0 z"
   id="path133"
   style="fill:#bfda33;fill-rule:evenodd" />
	<path
   d="m 317.994,379.998 0,-1 1,0 0,1 -1,0 z"
   id="path135"
   style="fill:#bfda33;fill-rule:evenodd" />
	<path
   d="m 319.994,379.998 0,-1 1,0 0,1 -1,0 z"
   id="path137"
   style="fill:#bfda33;fill-rule:evenodd" />
	<path
   d="m 321.994,379.998 0,-1 1,0 0,1 -1,0 z"
   id="path139"
   style="fill:#bfda33;fill-rule:evenodd" />
	<path
   d="m 323.994,379.998 0,-1 0.999,0 0,1 -0.999,0 z"
   id="path141"
   style="fill:#bfda33;fill-rule:evenodd" />
	
	<path
   d="m 286.999,380.998 c 0,-0.333 0,-0.667 0,-1 0.333,0 0.667,0 1,0 0,0.333 0,0.667 0,1 -0.334,0 -0.667,0 -1,0 z"
   id="path145"
   style="fill:#bfda33;fill-rule:evenodd" />
	
	<path
   d="m 288.998,380.998 c 0,-0.333 0,-0.667 0,-1 0.333,0 0.667,0 1,0 0,0.333 0,0.667 0,1 -0.333,0 -0.666,0 -1,0 z"
   id="path149"
   style="fill:#bfda33;fill-rule:evenodd" />
	
	<path
   d="m 290.998,380.998 c 0,-0.333 0,-0.667 0,-1 0.333,0 0.667,0 1,0 0,0.333 0,0.667 0,1 -0.333,0 -0.667,0 -1,0 z"
   id="path153"
   style="fill:#bfda33;fill-rule:evenodd" />
	
	<path
   d="m 292.998,380.998 c 0,-0.333 0,-0.667 0,-1 0.333,0 0.667,0 1,0 0,0.333 0,0.667 0,1 -0.334,0 -0.667,0 -1,0 z"
   id="path157"
   style="fill:#bfda33;fill-rule:evenodd" />
	
	<path
   d="m 294.998,380.998 0,-1 1,0 0,1 -1,0 z"
   id="path161"
   style="fill:#bfda33;fill-rule:evenodd" />
	<path
   d="m 300.997,379.998 1,0 0,1 2,0 0,-1 1,0 0,1 1,0 0,3 -1,0 0,-2 -1,0 0,2 -3,0 0,-4 z"
   id="path163"
   style="fill:#bfda33;fill-rule:evenodd" />
	<path
   d="m 314.995,379.998 1,0 0,1 -1,0 0,-1 z"
   id="path165"
   style="fill:#bfda33;fill-rule:evenodd" />
	
	<path
   d="m 316.994,380.998 0,-1 1,0 0,1 -1,0 z"
   id="path169"
   style="fill:#bfda33;fill-rule:evenodd" />
	
	<path
   d="m 318.994,380.998 c 0,-0.333 0,-0.667 0,-1 0.334,0 0.667,0 1,0 0,0.333 0,0.667 0,1 -0.333,0 -0.666,0 -1,0 z"
   id="path173"
   style="fill:#bfda33;fill-rule:evenodd" />
	
	<path
   d="m 320.994,380.998 c 0,-0.333 0,-0.667 0,-1 0.333,0 0.667,0 1,0 0,0.333 0,0.667 0,1 -0.333,0 -0.667,0 -1,0 z"
   id="path177"
   style="fill:#bfda33;fill-rule:evenodd" />
	
	<path
   d="m 322.994,380.998 0,-1 1,0 0,1 -1,0 z"
   id="path181"
   style="fill:#bfda33;fill-rule:evenodd" />
	
	<path
   d="m 324.993,380.998 0,-1 1,0 0,1 -1,0 z"
   id="path185"
   style="fill:#bfda33;fill-rule:evenodd" />
	<path
   d="m 277,380.998 0,1 -1,0 0,-1 1,0 z"
   id="path187"
   style="fill:#42a212;fill-rule:evenodd" />
	<path
   d="m 277,381.998 0,-1 1,0 0,1 -1,0 z"
   id="path189"
   style="fill:#bfda33;fill-rule:evenodd" />
	<path
   d="m 279,381.998 0,-1 1,0 0,1 -1,0 z"
   id="path191"
   style="fill:#bfda33;fill-rule:evenodd" />
	<path
   d="m 280.999,381.998 0,-1 1,0 0,1 -1,0 z"
   id="path193"
   style="fill:#bfda33;fill-rule:evenodd" />
	<path
   d="m 282.999,381.998 0,-1 1,0 0,1 -1,0 z"
   id="path195"
   style="fill:#bfda33;fill-rule:evenodd" />
	<path
   d="m 327.993,381.998 0,-1 1,0 0,1 -1,0 z"
   id="path197"
   style="fill:#bfda33;fill-rule:evenodd" />
	<path
   d="m 329.993,381.998 0,-1 1,0 0,1 -1,0 z"
   id="path199"
   style="fill:#bfda33;fill-rule:evenodd" />
	<path
   d="m 331.993,381.998 0,-1 0.999,0 0,1 -0.999,0 z"
   id="path201"
   style="fill:#bfda33;fill-rule:evenodd" />
	<path
   d="m 333.992,381.998 0,-1 1,0 0,1 -1,0 z"
   id="path203"
   style="fill:#bfda33;fill-rule:evenodd" />
	
	<path
   d="m 277,382.998 c 0,-0.333 0,-0.667 0,-1 0.333,0 0.667,0 1,0 0,0.333 0,0.667 0,1 -0.334,0 -0.667,0 -1,0 z"
   id="path207"
   style="fill:#42a212;fill-rule:evenodd" />
	<path
   d="m 278,382.998 c 0,-0.333 0,-0.667 0,-1 0.333,0 0.667,0 1,0 0,0.333 0,0.667 0,1 -0.334,0 -0.667,0 -1,0 z"
   id="path209"
   style="fill:#bfda33;fill-rule:evenodd" />
	<path
   d="m 279,382.998 0,-1 1,0 0,1 -1,0 z"
   id="path211"
   style="fill:#42a212;fill-rule:evenodd" />
	<path
   d="m 279.999,382.998 c 0,-0.333 0,-0.667 0,-1 0.333,0 0.667,0 1,0 0,0.333 0,0.667 0,1 -0.333,0 -0.666,0 -1,0 z"
   id="path213"
   style="fill:#bfda33;fill-rule:evenodd" />
	<path
   d="m 280.999,382.998 0,-1 1,0 0,1 -1,0 z"
   id="path215"
   style="fill:#42a212;fill-rule:evenodd" />
	<path
   d="m 281.999,382.998 c 0,-0.333 0,-0.667 0,-1 0.333,0 0.667,0 1,0 0,0.333 0,0.667 0,1 -0.333,0 -0.666,0 -1,0 z"
   id="path217"
   style="fill:#bfda33;fill-rule:evenodd" />
	<path
   d="m 282.999,382.998 0,-1 1,0 0,1 -1,0 z"
   id="path219"
   style="fill:#42a212;fill-rule:evenodd" />
	
	<path
   d="m 304.996,383.998 -1,0 0,-1 0,-1 1,0 0,1 0,1 z"
   id="path223"
   style="fill:#42a212;fill-rule:evenodd" />
	
	
	<path
   d="m 328.993,382.998 0,-1 1,0 0,1 -1,0 z"
   id="path229"
   style="fill:#bfda33;fill-rule:evenodd" />
	
	<path
   d="m 330.993,382.998 0,-1 1,0 0,1 -1,0 z"
   id="path233"
   style="fill:#bfda33;fill-rule:evenodd" />
	
	<path
   d="m 332.992,382.998 0,-1 1,0 0,1 -1,0 z"
   id="path237"
   style="fill:#bfda33;fill-rule:evenodd" />
	
	<path
   d="m 276,383.998 0,-1 1,0 0,1 -1,0 z"
   id="path241"
   style="fill:#42a212;fill-rule:evenodd" />
	<path
   d="m 277,383.998 c 0,-0.333 0,-0.667 0,-1 0.333,0 0.667,0 1,0 0,0.333 0,0.667 0,1 -0.334,0 -0.667,0 -1,0 z"
   id="path243"
   style="fill:#bfda33;fill-rule:evenodd" />
	<path
   d="m 278,383.998 c 0,-0.333 0,-0.667 0,-1 0.333,0 0.667,0 1,0 0,0.333 0,0.667 0,1 -0.334,0 -0.667,0 -1,0 z"
   id="path245"
   style="fill:#42a212;fill-rule:evenodd" />
	<path
   d="m 279,383.998 0,-1 1,0 0,1 -1,0 z"
   id="path247"
   style="fill:#bfda33;fill-rule:evenodd" />
	<path
   d="m 279.999,383.998 c 0,-0.333 0,-0.667 0,-1 0.333,0 0.667,0 1,0 0,0.333 0,0.667 0,1 -0.333,0 -0.666,0 -1,0 z"
   id="path249"
   style="fill:#42a212;fill-rule:evenodd" />
	<path
   d="m 280.999,383.998 0,-1 1,0 0,1 -1,0 z"
   id="path251"
   style="fill:#bfda33;fill-rule:evenodd" />
	<path
   d="m 281.999,383.998 c 0,-0.333 0,-0.667 0,-1 0.333,0 0.667,0 1,0 0,0.333 0,0.667 0,1 -0.333,0 -0.666,0 -1,0 z"
   id="path253"
   style="fill:#42a212;fill-rule:evenodd" />
	<path
   d="m 282.999,383.998 0,-1 1,0 0,1 -1,0 z"
   id="path255"
   style="fill:#bfda33;fill-rule:evenodd" />
	<path
   d="m 299.00805,384.37365 -0.0111,-1.65739 1,0 0,1.65739 -0.98895,0 z"
   id="path257"
   style="fill:#0a0a0a;fill-rule:evenodd" />
	
	
	<path
   d="m 329.993,383.998 0,-1 1,0 0,1 -1,0 z"
   id="path263"
   style="fill:#bfda33;fill-rule:evenodd" />
	
	<path
   d="m 331.993,383.998 0,-1 0.999,0 0,1 -0.999,0 z"
   id="path267"
   style="fill:#bfda33;fill-rule:evenodd" />
	
	<path
   d="m 333.992,383.998 0,-1 1,0 0,1 -1,0 z"
   id="path271"
   style="fill:#bfda33;fill-rule:evenodd" />
	
	
	
	
	
	<path
   d="m 300.9335,385.997 9.0615,0 0,29.997 -9.0615,0 0,-29.997 z"
   id="path283"
   style="fill:#42a212;fill-rule:evenodd" /><path
   d="m 301.997,385.997 3,0 0,29.997 -3,0 0,-29.997 z"
   id="path277"
   style="fill:#bfda33;fill-rule:evenodd" /><path
   d="m 305.996,385.997 1,0 0,29.997 -1,0 0,-29.997 z"
   id="path281"
   style="fill:#bfda33;fill-rule:evenodd" />
	
	
	
	
	
	<path
   d="m 297.40225,417.993 15.59275,0 0,8.999 -15.59275,0 0,-8.999 z"
   id="path295"
   style="fill:#42a212;fill-rule:evenodd" /><path
   d="m 297.997,417.993 0,5.999 1,0 0,1 -1,0 0,1 1,0 0,1 -1,0 -1,0 0,-8.999 1,0 z"
   id="path285"
   style="fill:#bfda33;fill-rule:evenodd" /><path
   d="m 304.996,417.993 1,0 0,5.999 -1,0 0,-5.999 z"
   id="path293"
   style="fill:#bfda33;fill-rule:evenodd" />
	<path
   d="m 312.995,417.993 1,0 0,8.999 -1,0 -1,0 0,-1 1,0 0,-1 -1,0 0,-1 1,0 0,-1 0,-1.999 0,-1 0,-2 z"
   id="path297"
   style="fill:#bfda33;fill-rule:evenodd" />
	<path
   d="m 299.997,424.992 0,-1 1,0 0,1 -1,0 z"
   id="path299"
   style="fill:#bfda33;fill-rule:evenodd" />
	
	
	<path
   d="m 303.996,424.992 0,-1 1,0 0,1 -1,0 z"
   id="path305"
   style="fill:#bfda33;fill-rule:evenodd" />
	
	<path
   d="m 305.996,424.992 0,-1 1,0 0,1 -1,0 z"
   id="path309"
   style="fill:#bfda33;fill-rule:evenodd" />
	<path
   d="m 307.996,424.992 0,-1 1,0 0,1 -1,0 z"
   id="path311"
   style="fill:#bfda33;fill-rule:evenodd" />
	<path
   d="m 309.995,424.992 0,-1 1,0 0,1 -1,0 z"
   id="path313"
   style="fill:#bfda33;fill-rule:evenodd" />
	
	<path
   d="m 298.997,425.992 0,-1 1,0 0,1 -1,0 z"
   id="path317"
   style="fill:#bfda33;fill-rule:evenodd" />
	
	<path
   d="m 300.997,425.992 0,-1 1,0 0,1 -1,0 z"
   id="path321"
   style="fill:#bfda33;fill-rule:evenodd" /><path
   d="m 300.997,417.993 3,0 0,5.999 -1,0 0,1 -1,0 0,-1 -1,0 0,-5.999 z"
   id="path289"
   style="fill:#bfda33;fill-rule:evenodd" />
	
	<path
   d="m 302.997,425.992 0,-1 1,0 0,1 -1,0 z"
   id="path325"
   style="fill:#bfda33;fill-rule:evenodd" />
	
	<path
   d="m 304.996,425.992 0,-1 1,0 0,1 -1,0 z"
   id="path329"
   style="fill:#bfda33;fill-rule:evenodd" />
	
	<path
   d="m 306.996,425.992 c 0,-0.333 0,-0.667 0,-1 0.333,0 0.666,0 1,0 0,0.333 0,0.667 0,1 -0.334,0 -0.667,0 -1,0 z"
   id="path333"
   style="fill:#bfda33;fill-rule:evenodd" />
	
	<path
   d="m 308.996,425.992 0,-1 0.999,0 0,1 -0.999,0 z"
   id="path337"
   style="fill:#bfda33;fill-rule:evenodd" />
	
	<path
   d="m 310.995,425.992 0,-1 1,0 0,1 -1,0 z"
   id="path341"
   style="fill:#bfda33;fill-rule:evenodd" />
	
	
	<path
   d="m 299.997,426.992 0,-1 1,0 0,1 -1,0 z"
   id="path347"
   style="fill:#bfda33;fill-rule:evenodd" />
	
	<path
   d="m 301.997,426.992 0,-1 1,0 0,1 -1,0 z"
   id="path351"
   style="fill:#bfda33;fill-rule:evenodd" />
	
	<path
   d="m 303.996,426.992 0,-1 1,0 0,1 -1,0 z"
   id="path355"
   style="fill:#bfda33;fill-rule:evenodd" />
	
	<path
   d="m 305.996,426.992 c 0,-0.333 0,-0.667 0,-1 0.333,0 0.666,0 1,0 0,0.333 0,0.667 0,1 -0.334,0 -0.667,0 -1,0 z"
   id="path359"
   style="fill:#bfda33;fill-rule:evenodd" />
	
	<path
   d="m 307.996,426.992 c 0,-0.333 0,-0.667 0,-1 0.333,0 0.666,0 1,0 0,0.333 0,0.667 0,1 -0.334,0 -0.667,0 -1,0 z"
   id="path363"
   style="fill:#bfda33;fill-rule:evenodd" />
	
	<path
   d="m 309.995,426.992 0,-1 1,0 0,1 -1,0 z"
   id="path367"
   style="fill:#bfda33;fill-rule:evenodd" />
	
</g>
</svg>
